<svg width="18" height="18" viewBox="0 0 18 18" fill="none" xmlns="http://www.w3.org/2000/svg">
<path d="M10.1 5.00024V5V1C10.1 0.741907 10.1864 0.530071 10.3587 0.357714C10.5311 0.18537 10.7425 0.0993964 10.9998 0.100003H11H17C17.2581 0.100003 17.4699 0.186358 17.6423 0.358714C17.8146 0.531059 17.9006 0.742487 17.9 0.999767V1V5C17.9 5.2581 17.8137 5.46994 17.6413 5.64229C17.4689 5.81464 17.2575 5.90061 17.0002 5.9H17H11C10.7419 5.9 10.5301 5.81365 10.3577 5.64129C10.1854 5.46895 10.0994 5.25752 10.1 5.00024ZM0.100003 9.00024V9V1C0.100003 0.741907 0.186358 0.530071 0.358714 0.357714C0.531059 0.18537 0.742486 0.0993964 0.999768 0.100003H1H7C7.2581 0.100003 7.46994 0.186358 7.64229 0.358714C7.81464 0.531059 7.90061 0.742486 7.9 0.999768V1V9C7.9 9.2581 7.81365 9.46994 7.64129 9.64229C7.46895 9.81464 7.25752 9.90061 7.00024 9.9H7H1C0.741907 9.9 0.530071 9.81365 0.357714 9.64129C0.18537 9.46895 0.0993964 9.25752 0.100003 9.00024ZM10.1 17.0002V17V9C10.1 8.74191 10.1864 8.53007 10.3587 8.35771C10.5311 8.18537 10.7425 8.0994 10.9998 8.1H11H17C17.2581 8.1 17.4699 8.18636 17.6423 8.35871C17.8146 8.53106 17.9006 8.74249 17.9 8.99977V9V17C17.9 17.2581 17.8137 17.4699 17.6413 17.6423C17.4689 17.8146 17.2575 17.9006 17.0002 17.9H17H11C10.7419 17.9 10.5301 17.8137 10.3577 17.6413C10.1854 17.4689 10.0994 17.2575 10.1 17.0002ZM0.100003 17.0002V17V13C0.100003 12.7419 0.186357 12.5301 0.358714 12.3577C0.531059 12.1854 0.742486 12.0994 0.999768 12.1H1H7C7.2581 12.1 7.46994 12.1864 7.64229 12.3587C7.81464 12.5311 7.90061 12.7425 7.9 12.9998V13V17C7.9 17.2581 7.81365 17.4699 7.64129 17.6423C7.46895 17.8146 7.25752 17.9006 7.00024 17.9H7H1C0.741907 17.9 0.530071 17.8137 0.357714 17.6413C0.18537 17.4689 0.0993964 17.2575 0.100003 17.0002ZM1.9 8V8.1H2H6H6.1V8V2V1.9H6H2H1.9V2V8ZM11.9 16V16.1H12H16H16.1V16V10V9.9H16H12H11.9V10V16ZM11.9 4V4.1H12H16H16.1V4V2V1.9H16H12H11.9V2V4ZM1.9 16V16.1H2H6H6.1V16V14V13.9H6H2H1.9V14V16Z" fill="black" stroke="url(#paint0_linear_223_430)" stroke-width="0.2"/>
<defs>
<linearGradient id="paint0_linear_223_430" x1="9" y1="0" x2="9" y2="18" gradientUnits="userSpaceOnUse">
<stop stop-color="#DEA845"/>
<stop offset="0.493055" stop-color="#EDCF60"/>
<stop offset="1" stop-color="#C59034"/>
</linearGradient>
</defs>
</svg>
