<svg width="24" height="24" viewBox="0 0 24 24" fill="none" xmlns="http://www.w3.org/2000/svg">
<path d="M12 18.7583L10.841 16.2086L10.8255 16.1745L10.7914 16.159L8.24166 15L10.7914 13.841L10.8255 13.8255L10.841 13.7914L12 11.2417L13.159 13.7914L13.1745 13.8255L13.2086 13.841L15.7583 15L13.2086 16.159L13.1745 16.1745L13.159 16.2086L12 18.7583ZM3.1 20.0001V20V6C3.1 5.47676 3.2853 5.03112 3.65871 4.65771C4.03212 4.2843 4.47738 4.09937 4.99988 4.1H5H6H6.1V4V2.1H7.9V4V4.1H8H16H16.1V4V2.1H17.9V4V4.1H18H19C19.5232 4.1 19.9689 4.2853 20.3423 4.65871C20.7157 5.03212 20.9006 5.47738 20.9 5.99988V6V20C20.9 20.5232 20.7147 20.9689 20.3413 21.3423C19.9679 21.7157 19.5226 21.9006 19.0001 21.9H19H5C4.47676 21.9 4.03113 21.7147 3.65771 21.3413C3.2843 20.9679 3.09937 20.5226 3.1 20.0001ZM21 6V20C21 20.55 20.804 21.021 20.412 21.413C20.02 21.805 19.5493 22.0007 19 22H5C4.45 22 3.979 21.804 3.587 21.412C3.195 21.02 2.99934 20.5493 3 20V6C3 5.45 3.196 4.979 3.588 4.587C3.98 4.195 4.45067 3.99933 5 4L21 6ZM4.9 20V20.1H5H19H19.1V20V10V9.9H19H5H4.9V10V20ZM4.9 8V8.1H5H19H19.1V8V6V5.9H19H5H4.9V6V8Z" fill="black" stroke="url(#paint0_linear_223_473)" stroke-width="0.2"/>
<defs>
<linearGradient id="paint0_linear_223_473" x1="12" y1="2" x2="12" y2="22" gradientUnits="userSpaceOnUse">
<stop stop-color="#DEA845"/>
<stop offset="0.493055" stop-color="#EDCF60"/>
<stop offset="1" stop-color="#C59034"/>
</linearGradient>
</defs>
</svg>
