<svg width="24" height="24" viewBox="0 0 24 24" fill="none" xmlns="http://www.w3.org/2000/svg">
<path d="M21 12.75V16.5H3V4.5H10.5V3H3C2.60218 3 2.22064 3.15804 1.93934 3.43934C1.65804 3.72064 1.5 4.10218 1.5 4.5V16.5C1.5 16.8978 1.65804 17.2794 1.93934 17.5607C2.22064 17.842 2.60218 18 3 18H9V21H6V22.5H18V21H15V18H21C21.3978 18 21.7794 17.842 22.0607 17.5607C22.342 17.2794 22.5 16.8978 22.5 16.5V12.75H21ZM13.5 21H10.5V18H13.5V21Z" fill="black"/>
<path d="M22.5 7.5V6H20.9243C20.8275 5.53052 20.6411 5.08411 20.3752 4.68525L21.4927 3.56775L20.4323 2.50725L19.3148 3.62475C18.9159 3.35888 18.4695 3.17248 18 3.07575V1.5H16.5V3.07575C16.0305 3.17248 15.5841 3.35888 15.1852 3.62475L14.0677 2.50725L13.0073 3.56775L14.1248 4.68525C13.8589 5.08411 13.6725 5.53052 13.5757 6H12V7.5H13.5757C13.6725 7.96948 13.8589 8.41589 14.1248 8.81475L13.0073 9.93225L14.0677 10.9927L15.1852 9.87525C15.5841 10.1411 16.0305 10.3275 16.5 10.4243V12H18V10.4243C18.4695 10.3275 18.9159 10.1411 19.3148 9.87525L20.4323 10.9927L21.4927 9.93225L20.3752 8.81475C20.6411 8.41589 20.8275 7.96948 20.9243 7.5H22.5ZM17.25 9C16.805 9 16.37 8.86804 16 8.62081C15.63 8.37357 15.3416 8.02217 15.1713 7.61104C15.001 7.1999 14.9564 6.7475 15.0432 6.31105C15.13 5.87459 15.3443 5.47368 15.659 5.15901C15.9737 4.84434 16.3746 4.63005 16.811 4.54323C17.2475 4.45642 17.6999 4.50097 18.111 4.67127C18.5222 4.84157 18.8736 5.12996 19.1208 5.49997C19.368 5.86998 19.5 6.30499 19.5 6.75C19.4994 7.34655 19.2622 7.9185 18.8403 8.34033C18.4185 8.76216 17.8466 8.9994 17.25 9Z" fill="black"/>
</svg>
