<svg width="18" height="20" viewBox="0 0 18 20" fill="none" xmlns="http://www.w3.org/2000/svg">
<path d="M9 16.7583L7.84104 14.2086L7.82552 14.1745L7.79138 14.159L5.24166 13L7.79138 11.841L7.82552 11.8255L7.84104 11.7914L9 9.24166L10.159 11.7914L10.1745 11.8255L10.2086 11.841L12.7583 13L10.2086 14.159L10.1745 14.1745L10.159 14.2086L9 16.7583ZM0.100002 18.0001V18V4C0.100002 3.47676 0.285298 3.03112 0.658712 2.65771C1.03212 2.2843 1.47738 2.09937 1.99988 2.1H2H3H3.1V2V0.1H4.9V2V2.1H5H13H13.1V2V0.1H14.9V2V2.1H15H16C16.5232 2.1 16.9689 2.2853 17.3423 2.65871C17.7157 3.03212 17.9006 3.47738 17.9 3.99988V4V18C17.9 18.5232 17.7147 18.9689 17.3413 19.3423C16.9679 19.7157 16.5226 19.9006 16.0001 19.9H16H2C1.47676 19.9 1.03113 19.7147 0.657712 19.3413C0.284302 18.9679 0.0993675 18.5226 0.100002 18.0001ZM18 4V18C18 18.55 17.804 19.021 17.412 19.413C17.02 19.805 16.5493 20.0007 16 20H2C1.45 20 0.979002 19.804 0.587002 19.412C0.195002 19.02 -0.000664969 18.5493 0 18V4C0 3.45 0.196002 2.979 0.588002 2.587C0.980002 2.195 1.45067 1.99933 2 2L18 4ZM1.9 18V18.1H2H16H16.1V18V8V7.9H16H2H1.9V8V18ZM1.9 6V6.1H2H16H16.1V6V4V3.9H16H2H1.9V4V6Z" fill="black" stroke="url(#paint0_linear_223_474)" stroke-width="0.2"/>
<defs>
<linearGradient id="paint0_linear_223_474" x1="9" y1="0" x2="9" y2="20" gradientUnits="userSpaceOnUse">
<stop stop-color="#DEA845"/>
<stop offset="0.493055" stop-color="#EDCF60"/>
<stop offset="1" stop-color="#C59034"/>
</linearGradient>
</defs>
</svg>
